<?xml version="1.0" standalone="no"?>
<!DOCTYPE svg PUBLIC "-//W3C//DTD SVG 20010904//EN"
 "http://www.w3.org/TR/2001/REC-SVG-20010904/DTD/svg10.dtd">
<svg version="1.0" xmlns="http://www.w3.org/2000/svg"
 width="500.000000pt" height="500.000000pt" viewBox="0 0 500.000000 500.000000"
 preserveAspectRatio="xMidYMid meet">
<metadata>
Created by potrace 1.16, written by Peter Selinger 2001-2019
</metadata>
<g transform="translate(0.000000,500.000000) scale(0.100000,-0.100000)"
fill="#000000" stroke="none">
<path d="M2820 2681 c-80 -26 -152 -80 -216 -162 -26 -32 -50 -59 -53 -59 -4
0 -14 13 -24 29 -43 73 -111 144 -161 167 -108 50 -242 21 -306 -67 -47 -66
-63 -128 -58 -233 5 -114 35 -183 108 -250 124 -111 276 -83 428 79 l79 85 42
-59 c82 -117 153 -161 262 -161 151 0 260 148 246 336 -13 171 -117 292 -260
300 -34 2 -73 0 -87 -5z m-441 -153 c25 -12 68 -44 94 -70 l48 -48 -22 -33
c-112 -160 -219 -226 -321 -198 -82 23 -129 87 -130 176 -1 98 38 161 118 191
52 19 153 11 213 -18z m622 17 c55 -20 77 -40 100 -90 35 -77 20 -170 -37
-227 -86 -87 -252 -73 -357 28 -60 59 -61 65 -20 120 74 100 125 143 202 170
47 17 60 17 112 -1z"/>
</g>
</svg>
